<?xml version="1.0" encoding="utf-8"?>
<!-- Generator: Adobe Illustrator 19.0.0, SVG Export Plug-In . SVG Version: 6.00 Build 0)  -->
<svg version="1.1" id="Layer_1" xmlns="http://www.w3.org/2000/svg" xmlns:xlink="http://www.w3.org/1999/xlink" x="0px" y="0px"
	 viewBox="0 0 4000 4000" style="enable-background:new 0 0 4000 4000;" xml:space="preserve">
<style type="text/css">
	.st0{fill:#CCEEFF;}
	.st1{opacity:0.35;}
	.st2{fill:#262F6A;}
	.st3{fill:#000072;}
	.st4{fill:#D2E7F9;}
	.st5{opacity:0.3;}
	.st6{opacity:0.55;}
	.st7{fill:#FFFFFF;}
	.st8{fill:#19AFF9;}
	.st9{opacity:0.5;}
	.st10{opacity:0.15;}
	.st11{fill:#D16913;}
	.st12{opacity:0.29;}
	.st13{opacity:0.2;}
	.st14{fill:#F3F1A5;}
	.st15{fill:#5F5A57;}
	.st16{fill:#4A83FF;}
	.st17{opacity:0.51;}
	.st18{fill:#EC1C24;}
</style>
<g>
	<g>
		<rect class="st0" width="4000" height="4000"/>
	</g>
	<g>
		<g>
			<g class="st1">
				<path class="st2" d="M3143.6,3127.9l-479.9-83.2c-49.5-8.6-82.7-55.7-74.1-105.3l171.1-986.5c8.6-49.5,55.7-82.7,105.3-74.1
					l479.9,83.2c49.5,8.6,82.7,55.7,74.1,105.3l-171.1,986.5C3240.2,3103.3,3193.1,3136.5,3143.6,3127.9z"/>
				<path class="st3" d="M3159.3,3131.8c-5.4,0-10.8-0.5-16.2-1.4l-479.9-83.2c-50.8-8.8-85-57.3-76.2-108.1l171.1-986.5
					c4.3-24.6,17.9-46.1,38.3-60.5c20.4-14.4,45.2-20,69.9-15.7l479.9,83.2c50.8,8.8,85,57.3,76.2,108.1l-171.1,986.5
					c-4.3,24.6-17.9,46.1-38.3,60.5C3197,3125.9,3178.4,3131.8,3159.3,3131.8z M2850.1,1879.9c-18.1,0-35.7,5.5-50.8,16.2
					c-19.3,13.6-32.2,34-36.3,57.3L2592,2939.8c-8.3,48.1,24,94,72.1,102.4l479.9,83.2c23.3,4,46.8-1.2,66.1-14.9
					c19.3-13.6,32.2-34,36.3-57.3l171.1-986.5c8.3-48.1-24-94-72.1-102.4l-479.9-83.2C2860.3,1880.3,2855.2,1879.9,2850.1,1879.9z"
					/>
			</g>
			<g>
				<path class="st4" d="M3035,3023.5l-479.9-83.2c-49.5-8.6-82.7-55.7-74.1-105.3l171.1-986.5c8.6-49.5,55.7-82.7,105.3-74.1
					l479.9,83.2c49.5,8.6,82.7,55.7,74.1,105.3l-171.1,986.5C3131.7,2998.9,3084.5,3032.1,3035,3023.5z"/>
				<path class="st3" d="M3050.6,3027.3c-5.3,0-10.6-0.4-16-1.4l-479.9-83.2c-50.8-8.8-85-57.3-76.2-108.1l171.1-986.5
					c4.3-24.6,17.9-46.1,38.3-60.5c20.4-14.4,45.2-20,69.9-15.7l479.9,83.2c50.8,8.8,85,57.3,76.2,108.1l-171.1,986.5
					C3134.8,2995.2,3095.2,3027.3,3050.6,3027.3z M3035.4,3021c48.1,8.3,94-24,102.4-72.1l171.1-986.5c8.3-48.1-24-94-72.1-102.4
					l-479.9-83.2c-23.3-4-46.8,1.2-66.1,14.9c-19.3,13.6-32.2,34-36.3,57.3l-171.1,986.5c-8.3,48.1,24,94,72.1,102.4L3035.4,3021z"
					/>
			</g>
			<g class="st5">
				<path class="st3" d="M3308.3,1962.3l-171.1,986.5c-8.6,49.5-55.7,82.7-105.3,74.1l-479.9-83.2c-37.5-6.5-65.6-35-73.4-69.9
					c12.1,10.3,26.9,17.7,43.8,20.6l479.9,83.2c49.5,8.6,96.7-24.6,105.3-74.1l171.1-986.5c2.1-12.2,1.7-24.1-0.8-35.4
					C3301.4,1898,3314,1929.6,3308.3,1962.3z"/>
			</g>
			<g class="st6">
				<path class="st7" d="M3309,1921.6c-11-8-23.9-13.6-38.1-16.1l-479.9-83.2c-49.5-8.6-96.7,24.6-105.3,74.1l-171.1,986.5
					c-2.5,14.3-1.5,28.2,2.3,41.3c-27.1-19.8-42.2-53.9-36.1-89.2l171.1-986.5c8.6-49.5,55.7-82.7,105.3-74.1l479.9,83.2
					C3272.5,1863.7,3299.5,1889.4,3309,1921.6z"/>
			</g>
			<g>
				<path class="st3" d="M3050.6,3042.3c-6.1,0-12.3-0.5-18.6-1.6c0,0,0,0,0,0l-479.9-83.2c-59-10.2-98.6-66.5-88.4-125.5
					l171.1-986.5c5-28.6,20.7-53.5,44.4-70.2s52.5-23.2,81.1-18.2l479.9,83.2c59,10.2,98.6,66.5,88.4,125.5l-171.1,986.5
					C3148.3,3005,3102.4,3042.3,3050.6,3042.3z M3038,3006.2c39.9,6.9,78.1-19.9,85-59.9l171.1-986.5c6.9-40-19.9-78.1-59.9-85
					l-479.9-83.2c-19.3-3.3-38.9,1-54.9,12.3c-16.1,11.3-26.8,28.2-30.1,47.6L2498.2,2838c-6.9,40,19.9,78.1,59.9,85L3038,3006.2
					L3038,3006.2z"/>
			</g>
			<g>
				<path class="st2" d="M3043.9,2850l-438.9-76.1c-18.9-3.3-31.6-21.3-28.3-40.2l137.6-793.4c3.3-18.9,21.3-31.6,40.2-28.3
					l438.9,76.1c18.9,3.3,31.6,21.3,28.3,40.2l-137.6,793.4C3080.9,2840.6,3062.9,2853.3,3043.9,2850z"/>
				<path class="st3" d="M3049.9,2853c-2.1,0-4.2-0.2-6.4-0.6l-438.9-76.1c-20.3-3.5-33.9-22.9-30.4-43.1l137.6-793.4
					c1.7-9.8,7.1-18.4,15.3-24.1s18-8,27.8-6.3l438.9,76.1c20.3,3.5,33.9,22.9,30.4,43.1l-137.6,793.4
					C3083.5,2840.2,3067.7,2853,3049.9,2853z M3044.4,2847.6c17.5,3,34.3-8.8,37.3-26.3l137.6-793.4c3-17.5-8.8-34.3-26.3-37.3
					l-438.9-76.1c-8.5-1.5-17.1,0.4-24.1,5.4c-7,5-11.7,12.4-13.2,20.9l-137.6,793.4c-3,17.5,8.8,34.3,26.3,37.3L3044.4,2847.6z"/>
			</g>
			<g>
				<path class="st8" d="M3225.1,2033l-137.6,793.4c-1.8,10.3-7.9,18.6-16.1,23.7c-7,4.3-15.4,6.1-24.1,4.6l-438.9-76.1
					c-18.9-3.3-31.6-21.3-28.3-40.2l137.6-793.4c3.3-18.9,21.3-31.6,40.2-28.3l438.9,76.1C3215.7,1996.1,3228.4,2014.1,3225.1,2033z
					"/>
			</g>
			<g>
				<circle class="st3" cx="2810.6" cy="2892" r="37.5"/>
			</g>
			<g class="st9">
				<path class="st7" d="M3023.1,2332.5l-290.5-50.4c-13.2-2.3-22.1-14.9-19.8-28.1l32.4-186.7c2.3-13.2,14.9-22.1,28.1-19.8
					l290.5,50.4c13.2,2.3,22.1,14.9,19.8,28.1l-32.4,186.7C3048.9,2325.9,3036.3,2334.8,3023.1,2332.5z"/>
			</g>
			<g class="st9">
				<circle class="st7" cx="2786.6" cy="2000.6" r="29.4"/>
			</g>
			<g class="st9">
				<path class="st7" d="M2955.5,2722.3l-290.5-50.4c-13.2-2.3-22.1-14.9-19.8-28.1l32.4-186.7c2.3-13.2,14.9-22.1,28.1-19.8
					l290.5,50.4c13.2,2.3,22.1,14.9,19.8,28.1l-32.4,186.7C2981.3,2715.8,2968.7,2724.6,2955.5,2722.3z"/>
			</g>
			<g class="st9">
				<circle class="st7" cx="2719" cy="2390.4" r="29.4"/>
			</g>
			<g class="st10">
				<path class="st7" d="M3139,2529.9l-51.4,296.6c-1.8,10.3-7.9,18.6-16.1,23.7l-371.6-801.5l18-103.6
					c3.3-18.9,21.3-31.6,40.2-28.3l105.2,18.2L3139,2529.9z"/>
			</g>
			<g class="st10">
				<polygon class="st7" points="3189.4,2239.2 3159.9,2409.2 2946.8,1949.5 3064.5,1969.9 				"/>
			</g>
			<g class="st10">
				<polygon class="st7" points="2875.2,2824.9 2757.4,2804.5 2620,2508.2 2649.5,2338.3 				"/>
			</g>
			<g>
				<path class="st3" d="M3049.9,2867.1c-2.9,0-5.8-0.2-8.8-0.8h0l-438.9-76.1c-27.9-4.8-46.7-31.5-41.8-59.4l137.6-793.4
					c2.3-13.5,9.8-25.3,21-33.2c11.2-7.9,24.8-11,38.3-8.6l438.9,76.1c27.9,4.8,46.7,31.5,41.8,59.4l-137.6,793.4
					C3096.1,2849.5,3074.4,2867.1,3049.9,2867.1z M3046.8,2833.7c9.9,1.7,19.3-4.9,21.1-14.8l137.6-793.4
					c1.7-9.9-4.9-19.3-14.8-21.1l-438.9-76.1c-4.8-0.8-9.6,0.3-13.6,3.1c-4,2.8-6.6,7-7.5,11.8l-137.6,793.4
					c-1.7,9.9,4.9,19.3,14.8,21.1L3046.8,2833.7L3046.8,2833.7z"/>
			</g>
			<g>
				<path class="st3" d="M3038.4,1915.5c-0.7,0-1.4-0.1-2.2-0.2l-109-18.9c-6.8-1.2-11.4-7.6-10.2-14.4c1.2-6.8,7.6-11.4,14.5-10.2
					l109,18.9c6.8,1.2,11.4,7.6,10.2,14.5C3049.7,1911.2,3044.4,1915.5,3038.4,1915.5z"/>
			</g>
		</g>
		<g>
			<g class="st5">
				
					<ellipse transform="matrix(0.924 0.3823 -0.3823 0.924 686.7982 -1012.6023)" class="st3" cx="2891.5" cy="1221.9" rx="454.5" ry="359.1"/>
			</g>
			<g>
				<path class="st7" d="M2955.2,1277.7L3057,1392c22.3,25,20.1,63.3-4.9,85.5c-24.9,22.2-63.2,20-85.4-5l-101.8-114.3
					c17.1-10.3,33.4-22.4,48.8-36.1C2929.1,1308.3,2942.9,1293.5,2955.2,1277.7z"/>
				<path class="st3" d="M3011.9,1495.3c-17.4,0-34.7-7.1-47.2-21.1l-103.8-116.6l2.6-1.6c17-10.3,33.3-22.4,48.4-35.8
					c15.2-13.5,29-28.3,41.3-44.1l1.8-2.4l103.8,116.6c23.1,26,20.8,65.9-5.1,89.1C3041.8,1490,3026.8,1495.3,3011.9,1495.3z
					 M2868.6,1358.8l99.9,112.1c21.3,23.9,58,26.1,81.9,4.8c23.9-21.3,26-58.1,4.7-82l-99.9-112.1c-11.9,15.1-25.4,29.3-40,42.4
					C2900.7,1336.9,2885,1348.6,2868.6,1358.8z"/>
			</g>
			<g class="st5">
				<path class="st2" d="M2955.2,1277.7l64.4,72.3c-10.5,4.3-20.5,10.5-29.5,18.5c-26.9,24-38.6,58.7-34.2,92l-91.1-102.3
					c17.1-10.3,33.4-22.4,48.8-36.1C2929.1,1308.3,2942.9,1293.5,2955.2,1277.7z"/>
				<path class="st3" d="M2959.4,1468.2l-98.5-110.6l2.6-1.6c17-10.3,33.3-22.4,48.4-35.8c15.2-13.5,29-28.3,41.3-44.1l1.8-2.4
					l68.7,77.1l-3.3,1.3c-10.5,4.4-20.2,10.4-28.8,18.1c-25.3,22.6-37.8,56.1-33.3,89.8L2959.4,1468.2z M2868.6,1358.8l84,94.3
					c-2-32.7,11.1-64.5,35.7-86.5c8.1-7.2,17.2-13.1,27-17.6l-60.1-67.5c-11.9,15.1-25.4,29.3-40,42.4
					C2900.7,1336.9,2885,1348.6,2868.6,1358.8z"/>
			</g>
			<g>
				<path class="st3" d="M3011.9,1510.3c-21.5,0-42.9-8.8-58.4-26.1l-101.8-114.3c-3.5-3.9-5-9.1-4.2-14.2s3.8-9.7,8.2-12.4
					c16.3-9.9,31.8-21.4,46.2-34.2c14.5-12.9,27.7-27.1,39.4-42.1c3.2-4.1,8-6.6,13.2-6.8c5.2-0.1,10.2,2,13.7,5.8l101.8,114.3
					c28.6,32.1,25.8,81.6-6.4,110.2C3048.9,1503.8,3030.4,1510.3,3011.9,1510.3z M2891.4,1361.8l88.3,99.1
					c15.8,17.7,43,19.3,60.7,3.6c8.6-7.7,13.7-18.2,14.4-29.7c0.7-11.5-3.2-22.5-10.9-31.1l-88.3-99.1c-9.4,10.7-19.6,21-30.4,30.6
					C2914.5,1344.7,2903.2,1353.6,2891.4,1361.8z"/>
			</g>
			<g>
				<path class="st7" d="M3062.7,1038.1c25,163.3-71.8,317.2-222.7,369.1c-18.9,6.6-38.6,11.5-59,14.6c-20.4,3.1-40.7,4.3-60.6,3.7
					c-159.5-4.3-298.1-122-323.1-285.5c-28.2-183.7,98-355.6,281.7-383.8C2862.7,728.2,3034.5,854.4,3062.7,1038.1z"/>
				<path class="st3" d="M2730.3,1428.2c-3.4,0-6.7,0-10-0.2c-163.8-4.4-300.7-125.3-325.5-287.6c-13.7-89.5,8.3-179,61.9-252.1
					s132.4-120.8,221.9-134.5c89.5-13.7,179.1,8.2,252.1,61.9c73,53.6,120.8,132.4,134.5,221.9c24.9,162.2-69.5,318.6-224.3,371.9
					c-19.1,6.6-39.1,11.6-59.5,14.7C2764.3,1426.9,2747.2,1428.2,2730.3,1428.2z M2730.6,754.9c-17,0-34.2,1.3-51.3,3.9
					c-88.2,13.5-165.8,60.6-218.7,132.6c-52.8,72-74.5,160.2-61,248.3c24.5,159.9,159.4,279,320.7,283.3c19.9,0.6,40.1-0.6,60.2-3.7
					c20.1-3.1,39.8-8,58.6-14.5c152.6-52.5,245.5-206.6,221-366.4c-13.5-88.2-60.6-165.9-132.5-218.7
					C2869.7,777.2,2801.2,754.9,2730.6,754.9z"/>
			</g>
			<g class="st5">
				<path class="st2" d="M3062.7,1038.1c25,163.3-71.8,317.2-222.7,369.1c-18.9,6.6-38.6,11.5-59,14.6c-20.4,3.1-40.7,4.3-60.6,3.7
					c-122.5-3.3-232.6-73.5-288.4-179.9c60.3,64.8,145.2,105,237,107.4c20,0.6,40.2-0.6,60.6-3.7c20.5-3.1,40.2-8,59-14.6
					c150.8-51.9,247.7-205.8,222.7-369.1c-5.8-37.8-17.7-73.3-34.5-105.3C3021.1,907.9,3052.1,968.9,3062.7,1038.1z"/>
				<path class="st3" d="M2730.3,1428.2c-3.4,0-6.7,0-10-0.2c-122.2-3.3-233.6-72.7-290.5-181.2l-8.7-16.6l12.7,13.7
					c60.8,65.4,146.6,104.3,235.3,106.6c19.9,0.6,40.1-0.6,60.2-3.7c20.1-3.1,39.8-8,58.6-14.5c152.6-52.5,245.5-206.6,221-366.4
					c-5.6-36.8-17.2-72-34.3-104.6l-8.7-16.6l12.8,13.7c46.3,49.8,76.2,111.7,86.5,179.1c24.9,162.2-69.5,318.6-224.3,371.9
					c-19.1,6.6-39.1,11.6-59.5,14.7C2764.3,1426.9,2747.2,1428.2,2730.3,1428.2z M2443.3,1260.8c58.4,97.5,162.9,159.2,277.1,162.3
					c19.9,0.6,40.1-0.6,60.2-3.7c20.1-3.1,39.8-8,58.6-14.5c152.6-52.5,245.5-206.6,221-366.4c-9.2-60.2-34.3-116-72.9-162.5
					c12.9,28.2,21.8,58.2,26.5,89.3c24.9,162.2-69.5,318.6-224.3,371.9c-19.1,6.6-39.1,11.6-59.5,14.7c-20.3,3.1-40.9,4.4-61.1,3.8
					C2585.1,1353.4,2503.9,1319.1,2443.3,1260.8z"/>
			</g>
			<g>
				<circle class="st11" cx="2730" cy="1089.1" r="256.3"/>
			</g>
			<g class="st5">
				<path class="st3" d="M2943.9,948.1c-45.8-23.1-98.9-32.5-153.3-24.1c-139.8,21.4-235.9,152.2-214.5,292.1
					c5.8,37.8,19.6,72.5,39.6,102.4c-72-36-126-105.1-139.1-190.6c-21.4-139.8,74.6-270.7,214.5-292.1
					C2793.3,820.1,2890.6,867.1,2943.9,948.1z"/>
			</g>
			<g>
				<path class="st3" d="M2730.3,1443.2c-3.5,0-7-0.1-10.5-0.2c-170.9-4.6-313.9-130.9-339.9-300.3c-14.3-93.5,8.6-186.9,64.6-263.2
					c56-76.3,138.3-126.2,231.8-140.5c93.5-14.3,187,8.6,263.2,64.6c76.2,56,126.1,138.3,140.5,231.8l0,0
					c26,169.4-72.6,332.7-234.3,388.3c-19.9,6.9-40.8,12.1-62.1,15.4C2765.9,1441.9,2748,1443.2,2730.3,1443.2z M2730.6,769.9
					c-16.3,0-32.6,1.2-49,3.8c-84.2,12.9-158.4,57.9-208.9,126.6c-50.5,68.7-71.1,153-58.2,237.2
					c23.4,152.7,152.2,266.5,306.3,270.6c19,0.6,38.4-0.6,57.5-3.5c19.2-2.9,38-7.6,55.9-13.8c145.8-50.2,234.5-197.4,211.1-350l0,0
					c-12.9-84.2-57.9-158.4-126.6-208.9C2863.4,791.2,2798,769.9,2730.6,769.9z"/>
			</g>
			<g>
				<path class="st3" d="M2729.4,1363c-57.8,0-114-18.3-161.4-53.1c-58.9-43.3-97.5-106.9-108.6-179.2
					c-11.1-72.3,6.6-144.6,49.9-203.5c43.3-59,106.9-97.5,179.2-108.6c149.2-22.9,289.2,79.9,312.1,229.1
					c11.1,72.3-6.6,144.6-49.9,203.5c-43.3,59-106.9,97.5-179.2,108.6C2757.4,1361.9,2743.3,1363,2729.4,1363z M2730.1,850.3
					c-12,0-24.1,0.9-36.3,2.8c-63,9.7-118.6,43.3-156.3,94.7c-37.7,51.4-53.2,114.4-43.5,177.5c9.7,63,43.3,118.6,94.7,156.3
					c51.4,37.7,114.4,53.2,177.5,43.5c63-9.7,118.6-43.3,156.3-94.7c37.7-51.4,53.2-114.4,43.5-177.5l0,0
					C2947.9,935,2845.9,850.3,2730.1,850.3z"/>
			</g>
			<g class="st5">
				<path class="st7" d="M2882.5,1126.6c19,24.9-1.6,72.7-46.1,106.7c-44.5,34-96,41.4-115,16.5c-19-24.9,24.9-26.2,69.4-60.2
					C2835.2,1155.6,2863.4,1101.7,2882.5,1126.6z"/>
			</g>
			<g class="st5">
				<path class="st7" d="M2889.5,1087.2c-13.4,0.6-20.1-13.4-20.9-31c-0.7-17.6,4.7-32.1,18.2-32.7c13.4-0.6,24.9,13.2,25.7,30.8
					C2913.2,1072,2902.9,1086.7,2889.5,1087.2z"/>
			</g>
			<g class="st5">
				<circle class="st3" cx="2683.8" cy="1072.5" r="15.5"/>
			</g>
			<g class="st5">
				<circle class="st3" cx="2666.9" cy="1129.5" r="9.8"/>
			</g>
			<g class="st5">
				<circle class="st3" cx="2804.2" cy="1000.7" r="9.8"/>
			</g>
			<g class="st5">
				<circle class="st3" cx="2737" cy="1105.9" r="12.8"/>
			</g>
		</g>
		<g>
			<g>
				<g class="st1">
					<path class="st3" d="M2440,1486.8c-10.1-12.8-24.6-20.9-40.9-22.8l-211.9-24.8v-160.5c0-33.7-27.4-61.1-61.1-61.1h-247.9
						l-26-79.7c-10.4-32-45-49.6-77.1-39.2l-365.2,118.9H918.4c-33.7,0-61.1,27.4-61.1,61.1v118.9l-230.5,75
						c-15.5,5.1-28.2,15.9-35.6,30.4c-7.4,14.6-8.7,31.1-3.6,46.7l269.7,828.1v593.7c0,33.7,27.4,61.1,61.1,61.1h19.7l-3,25.9
						c-3.9,33.5,20.1,63.9,53.6,67.8l116.8,13.7l6.3,19.2c5.1,15.5,15.9,28.2,30.4,35.6c8.7,4.4,18.1,6.7,27.7,6.7
						c6.4,0,12.8-1,19-3l109.9-35.8l889.5,104.1c2.4,0.3,4.8,0.4,7.2,0.4c13.7,0,26.9-4.6,37.8-13.2c12.8-10.1,20.9-24.6,22.8-40.9
						l44.1-376.5l37-12.1c15.5-5.1,28.2-15.9,35.6-30.4s8.7-31.1,3.6-46.7l-48.4-148.7l124.8-1066.9
						C2454.6,1515.6,2450.1,1499.7,2440,1486.8z"/>
				</g>
				<g>
					<path class="st7" d="M2120.2,3174.4L920.7,3034c-23.9-2.8-41.1-24.5-38.3-48.4l196.7-1681.3c2.8-23.9,24.5-41.1,48.4-38.3
						l1199.5,140.3c23.9,2.8,41.1,24.5,38.3,48.4l-196.7,1681.3C2165.9,3160,2144.2,3177.2,2120.2,3174.4z"/>
					<path class="st3" d="M2125.3,3177.2c-1.8,0-3.6-0.1-5.4-0.3L920.4,3036.5c-12.2-1.4-23.2-7.5-30.8-17.2
						c-7.6-9.7-11.1-21.7-9.6-34l196.7-1681.3c1.4-12.2,7.5-23.2,17.2-30.8c9.7-7.6,21.7-11,34-9.6l1199.5,140.3
						c25.3,3,43.4,25.9,40.5,51.2l-196.7,1681.3C2168.4,3159.8,2148.4,3177.2,2125.3,3177.2z M2120.5,3171.9
						c22.5,2.7,43-13.5,45.6-36.1l196.7-1681.3c2.6-22.5-13.5-43-36.1-45.6l-1199.5-140.3c-10.9-1.3-21.7,1.8-30.3,8.6
						c-8.6,6.8-14.1,16.6-15.3,27.5L884.9,2985.9c-1.3,10.9,1.8,21.7,8.6,30.3c6.8,8.6,16.6,14.1,27.5,15.3L2120.5,3171.9z"/>
				</g>
				<g class="st1">
					<path class="st3" d="M2320.4,1489.8l-196.7,1681.3c-0.1,1.2-0.3,2.3-0.6,3.5c-1-0.1-1.9-0.2-2.8-0.3L920.7,3034
						c-24-2.8-41.1-24.4-38.3-48.4l196.7-1681.3c0.1-1.2,0.3-2.3,0.5-3.4c1,0,1.9,0.1,2.9,0.2l1199.5,140.3
						C2306,1444.2,2323.2,1465.9,2320.4,1489.8z"/>
				</g>
				<g>
					<path class="st3" d="M2125.4,3192.2c-2.4,0-4.7-0.1-7.1-0.4c0,0,0,0,0,0L918.7,3051.4c-16.2-1.9-30.7-10-40.9-22.8
						c-10.1-12.8-14.7-28.8-12.8-45l196.7-1681.3c1.9-16.2,10-30.7,22.8-40.9c12.8-10.1,28.8-14.7,45-12.8L2329.1,1389
						c33.5,3.9,57.5,34.4,53.6,67.8L2186,3138.1C2182.4,3169.2,2155.9,3192.2,2125.4,3192.2z M2122.3,3157
						c14.3,1.7,27.3-8.6,29-22.9L2348,1452.8c1.7-14.3-8.6-27.3-22.9-29l-1199.5-140.3c-6.9-0.8-13.8,1.1-19.2,5.5
						c-5.5,4.3-8.9,10.5-9.7,17.5L899.8,2987.6c-0.8,6.9,1.1,13.8,5.5,19.2c4.3,5.5,10.5,8.9,17.5,9.7L2122.3,3157L2122.3,3157z"/>
				</g>
				<g>
					<path class="st7" d="M2261.7,2732.9l-85.6,27.9L1377.1,3021l-263.8,85.9c-22.9,7.4-47.5-5.1-55-28l-18.8-57.9l-158.3-486.3
						l-347-1065.4c-7.4-22.9,5.1-47.6,28-55l319-103.9l213.4-69.5l616-200.6c22.9-7.4,47.5,5.1,55,28l56.2,172.6l354.4,1088.2
						l113.5,348.7C2297.2,2700.8,2284.6,2725.4,2261.7,2732.9z"/>
					<path class="st3" d="M1099.8,3111.5c-7.2,0-14.3-1.7-20.9-5.1c-11-5.6-19.1-15.1-22.9-26.8L531.8,1470.1
						c-7.9-24.2,5.4-50.3,29.6-58.2l1148.4-374c24.2-7.9,50.2,5.4,58.2,29.6L2292,2677.1c3.8,11.7,2.9,24.2-2.7,35.2
						c-5.6,11-15.1,19.1-26.8,23h0l-1148.4,374C1109.4,3110.8,1104.6,3111.5,1099.8,3111.5z M1724,1040.7c-4.2,0-8.5,0.6-12.7,2
						l-1148.4,374c-21.6,7-33.4,30.3-26.4,51.9l524.2,1609.5c3.4,10.4,10.7,18.9,20.5,23.9c9.8,5,20.9,5.9,31.4,2.5l1148.4-374
						c10.5-3.4,19-10.7,23.9-20.5c5-9.8,5.8-20.9,2.4-31.4l-524.1-1609.5C1757.5,1051.8,1741.3,1040.7,1724,1040.7z"/>
				</g>
				<g class="st1">
					<path class="st2" d="M2176.1,2329.2v431.6L1377.1,3021h-288.3l-3.2-10l-158.4-486.3l-46-141.3V1284.6
						c0-24.1,19.5-43.7,43.6-43.7h897L2176.1,2329.2z"/>
					<path class="st3" d="M1377.5,3023.5h-290.6l-3.8-11.7l-204.5-627.9V1284.6c0-25.4,20.7-46.1,46.1-46.1h898.8l355,1090.7v433.4
						L1377.5,3023.5z M1090.5,3018.5h286.1l796.9-259.5v-429.4L1820,1243.5H924.8c-22.7,0-41.1,18.5-41.1,41.1v1098.5L1090.5,3018.5
						z"/>
				</g>
				<g>
					<path class="st3" d="M1099.8,3126.5c-9.5,0-18.9-2.2-27.7-6.7c-14.6-7.4-25.4-20-30.4-35.6L517.6,1474.7
						c-10.4-32.1,7.1-66.6,39.2-77.1l1148.4-374c32.1-10.4,66.6,7.2,77.1,39.2l524.1,1609.5c5.1,15.5,3.8,32.1-3.6,46.7
						c-7.4,14.6-20,25.4-35.6,30.4l-1148.4,374C1112.5,3125.5,1106.1,3126.5,1099.8,3126.5z M1724,1055.7c-2.7,0-5.4,0.4-8.1,1.3
						L567.6,1431c-13.7,4.5-21.2,19.2-16.8,32.9L1075,3073.4c2.2,6.6,6.8,12,13,15.2c6.2,3.2,13.3,3.7,19.9,1.6l1148.4-374h0
						c6.6-2.2,12-6.8,15.2-13c3.2-6.2,3.7-13.3,1.6-19.9l-524.1-1609.5C1745.3,1062.7,1735,1055.7,1724,1055.7z"/>
				</g>
				<g>
					<path class="st7" d="M2056.1,2940.1H848.4c-24.1,0-43.6-19.5-43.6-43.6V1203.8c0-24.1,19.5-43.6,43.6-43.6h1207.7
						c24.1,0,43.6,19.5,43.6,43.6v1692.7C2099.7,2920.6,2080.2,2940.1,2056.1,2940.1z"/>
					<path class="st3" d="M2056.1,2942.6H848.4c-25.4,0-46.1-20.7-46.1-46.1V1203.8c0-25.4,20.7-46.1,46.1-46.1h1207.7
						c25.4,0,46.1,20.7,46.1,46.1v1692.7C2102.2,2921.9,2081.5,2942.6,2056.1,2942.6z M848.4,1162.6c-22.7,0-41.1,18.5-41.1,41.1
						v1692.7c0,22.7,18.5,41.1,41.1,41.1h1207.7c22.7,0,41.1-18.5,41.1-41.1V1203.8c0-22.7-18.5-41.1-41.1-41.1H848.4z"/>
				</g>
				<g>
					<path class="st3" d="M2056.1,2957.6H848.4c-33.7,0-61.1-27.4-61.1-61.1V1203.8c0-33.7,27.4-61.1,61.1-61.1h1207.7
						c33.7,0,61.1,27.4,61.1,61.1v1692.7C2117.2,2930.2,2089.8,2957.6,2056.1,2957.6z M848.4,1177.6c-14.4,0-26.1,11.7-26.1,26.1
						v1692.7c0,14.4,11.7,26.1,26.1,26.1h1207.7c14.4,0,26.1-11.7,26.1-26.1V1203.8c0-14.4-11.7-26.1-26.1-26.1H848.4z"/>
				</g>
				<g class="st5">
					<circle class="st3" cx="1452.2" cy="1547.4" r="126.7"/>
				</g>
				<g class="st5">
					<path class="st3" d="M1660.7,1902.4h-417c-21.4,0-36.6-20.4-31-41c23.8-87.5,122-153.1,239.5-153.1
						c117.5,0,215.8,65.6,239.5,153.1C1697.3,1882,1682.1,1902.4,1660.7,1902.4z"/>
				</g>
				<g class="st12">
					<path class="st3" d="M1796.9,2046.1h-63.1c-9.7,0-17.5-7.8-17.5-17.5s7.8-17.5,17.5-17.5h63.1c9.7,0,17.5,7.8,17.5,17.5
						S1806.6,2046.1,1796.9,2046.1z"/>
				</g>
				<g class="st12">
					<path class="st3" d="M1661.7,2046.1h-274.4c-9.7,0-17.5-7.8-17.5-17.5s7.8-17.5,17.5-17.5h274.4c9.7,0,17.5,7.8,17.5,17.5
						S1671.4,2046.1,1661.7,2046.1z"/>
				</g>
				<g class="st12">
					<path class="st3" d="M1600,2137.4h-274.4c-9.7,0-17.5-7.8-17.5-17.5s7.8-17.5,17.5-17.5H1600c9.7,0,17.5,7.8,17.5,17.5
						S1609.7,2137.4,1600,2137.4z"/>
				</g>
				<g class="st12">
					<path class="st3" d="M1457.9,2356.2h-274.4c-9.7,0-17.5-7.8-17.5-17.5s7.8-17.5,17.5-17.5h274.4c9.7,0,17.5,7.8,17.5,17.5
						S1467.6,2356.2,1457.9,2356.2z"/>
				</g>
				<g class="st12">
					<path class="st3" d="M1332.2,2291.2h-148.8c-9.7,0-17.5-7.8-17.5-17.5s7.8-17.5,17.5-17.5h148.8c9.7,0,17.5,7.8,17.5,17.5
						S1341.9,2291.2,1332.2,2291.2z"/>
				</g>
				<g class="st12">
					<path class="st3" d="M1351,2514.5h-167.5c-9.7,0-17.5-7.8-17.5-17.5c0-9.7,7.8-17.5,17.5-17.5H1351c9.7,0,17.5,7.8,17.5,17.5
						C1368.5,2506.7,1360.6,2514.5,1351,2514.5z"/>
				</g>
				<g class="st12">
					<path class="st3" d="M1587.2,2574.9h-403.8c-9.7,0-17.5-7.8-17.5-17.5s7.8-17.5,17.5-17.5h403.8c9.7,0,17.5,7.8,17.5,17.5
						S1596.9,2574.9,1587.2,2574.9z"/>
				</g>
				<g class="st12">
					<path class="st3" d="M1457.9,2784.9h-274.4c-9.7,0-17.5-7.8-17.5-17.5s7.8-17.5,17.5-17.5h274.4c9.7,0,17.5,7.8,17.5,17.5
						S1467.6,2784.9,1457.9,2784.9z"/>
				</g>
				<g class="st12">
					<path class="st3" d="M1299.7,2046.1h-232.5c-9.7,0-17.5-7.8-17.5-17.5s7.8-17.5,17.5-17.5h232.5c9.7,0,17.5,7.8,17.5,17.5
						S1309.4,2046.1,1299.7,2046.1z"/>
				</g>
				<g class="st5">
					<path class="st3" d="M1020.4,2350.5h-84.5c-12.6,0-22.9-10.2-22.9-22.9v-84.5c0-12.6,10.2-22.9,22.9-22.9h84.5
						c12.6,0,22.9,10.2,22.9,22.9v84.5C1043.3,2340.2,1033.1,2350.5,1020.4,2350.5z"/>
				</g>
				<g class="st5">
					<path class="st3" d="M1020.4,2567.1h-84.5c-12.6,0-22.9-10.2-22.9-22.9v-84.5c0-12.6,10.2-22.9,22.9-22.9h84.5
						c12.6,0,22.9,10.2,22.9,22.9v84.5C1043.3,2556.9,1033.1,2567.1,1020.4,2567.1z"/>
				</g>
				<g class="st5">
					<path class="st3" d="M1020.4,2783.8h-84.5c-12.6,0-22.9-10.2-22.9-22.9v-84.5c0-12.6,10.2-22.9,22.9-22.9h84.5
						c12.6,0,22.9,10.2,22.9,22.9v84.5C1043.3,2773.6,1033.1,2783.8,1020.4,2783.8z"/>
				</g>
				<g class="st13">
					<path class="st3" d="M2058.1,1654.4v1201.8c0,22.7-18.5,41.3-41.3,41.3H804.7v-0.9C1483.8,2872,1910,2455,2058.1,1654.4z"/>
				</g>
			</g>
			<g>
				<g class="st5">
					<path class="st3" d="M1153.8,1721.6l-57.9,175.5c-2.4,7.3-9.2,12-16.6,12c-1.8,0-3.6-0.3-5.5-0.9c-9.2-3-14.2-12.9-11.1-22.1
						l6.1-18.6c-14.3-7.3-23.2-22-23.2-37.7c0-4.4,0.7-8.8,2.2-13.2c6.7-20.1,26.9-31.8,47.1-28.4l25.6-77.5
						c5-15.2-3.3-31.7-18.6-36.8l-22.4-7.4l-243,734.7c-3.1,9.4-8.6,17.9-16,24.6l-15.8,14v-619.9l93-281
						c4.6-14,14.5-24.8,28.6-31.5l18.2-55.2c7.4-22.4,23.1-40.5,44.1-51.1c21.1-10.6,45-12.4,67.3-5c46.2,15.2,71.3,65.2,56.1,111.3
						l-17.7,53.7c5.3,9.2,8,18.9,8,28.4c0,5.3-0.9,10.7-2.6,16l-9.2,27.8l22.4,7.3c16.3,5.4,29.4,16.8,37.2,32.1
						C1157.8,1687.9,1159.1,1705.3,1153.8,1721.6z"/>
				</g>
				<g>
					<g>
						<path class="st14" d="M849.4,1739.9c-1.9-5.6-2.6-11.6-1.9-17.5l20-165.6l133.5,100.1c4.9,3.6,8.8,8.3,11.5,13.9
							C1023.1,1711.5,870.5,1776.4,849.4,1739.9z"/>
						<path class="st3" d="M876.7,1753c-13.8,0-24.7-3.5-29.5-11.9l-0.2-0.4c-2.1-6-2.8-12.4-2-18.6l20.5-169.9l136.9,102.7
							c5.3,4,9.4,8.9,12.2,14.8c6.2,23.6-33.9,51.7-73.8,68.1C918.9,1746.8,895.2,1753,876.7,1753z M851.6,1738.8
							c8.6,14.3,44.4,12,87.4-5.7c39.1-16.1,76-42.4,71-61.7c-2.3-4.7-6-9-10.6-12.5l-130-97.5l-19.5,161.3
							C849.3,1728.1,849.9,1733.7,851.6,1738.8z"/>
					</g>
					<g>
						<path class="st15" d="M857.9,1635.9l9.5-79l63.7,47.8C910,1618.2,882.4,1630,857.9,1635.9z"/>
						<path class="st3" d="M855,1639.1l10.5-86.9l70,52.5l-3,1.9c-21.5,13.9-49.1,25.7-74,31.6L855,1639.1z M869.4,1561.4l-8.6,71.1
							c22.2-5.7,46.4-16,65.9-28.1L869.4,1561.4z"/>
					</g>
					<g>
						<path class="st3" d="M876.6,1764.4c-19.1,0-34.3-5.9-40.7-20.9c-0.8-2-1.2-4.1-1.1-6.2c0.5-7.5,7-13.2,14.4-12.7
							c5.5,0.4,9.9,3.9,11.8,8.6c3.7,5.9,32.9,7.2,76.8-11.5c19.8-8.4,37.7-19.1,49.1-29.3c9.8-8.7,13.2-15.6,12.2-18.4
							c-2.1-4.8-1.4-10.6,2.4-14.7c5.1-5.5,13.6-6,19.1-0.9l0.1,0.1c1.4,1.3,2.6,2.9,3.3,4.7c13.6,31.9-30.1,64-75.6,83.5
							C924.4,1756.9,898.1,1764.4,876.6,1764.4z"/>
					</g>
				</g>
				<g>
					<path class="st3" d="M1039.3,1894c-1.8,0-3.7-0.3-5.5-0.9c-9.2-3-14.2-12.9-11.1-22.1l57.8-175.4c2.4-7.4,1.8-15.3-1.7-22.2
						c-3.5-6.9-9.5-12.1-16.9-14.6l-57.1-18.8c-9.2-3-14.2-12.9-11.1-22.1c3-9.2,12.9-14.2,22.1-11.1l57.1,18.8
						c16.3,5.4,29.5,16.7,37.2,32c7.7,15.3,9,32.7,3.6,49L1056,1882C1053.5,1889.4,1046.7,1894,1039.3,1894z"/>
				</g>
				<g>
					<path class="st16" d="M1033.3,1553.9L899,1509.6l22.1-67.1c12.2-37.1,52.2-57.2,89.2-45h0c37.1,12.2,57.2,52.2,45,89.2
						L1033.3,1553.9z"/>
				</g>
				<g class="st5">
					<path class="st3" d="M1010.4,1397.5c-6.1-2-12.3-3.1-18.5-3.4c22.7,17.9,33.1,48.6,23.5,77.6l-22.1,67.1l-93.7-30.9l-0.5,1.6
						l134.2,44.2l22.1-67.1C1067.6,1449.7,1047.4,1409.7,1010.4,1397.5z"/>
				</g>
				<g class="st17">
					<path class="st7" d="M1043,1420c-34.2-6.5-68.9,13.3-80.1,47.3l-18.8,57.2l-45.2-14.9l22.1-67.2c12.2-37,52.1-57.2,89.2-45
						C1023.8,1401.9,1034.9,1409.9,1043,1420z"/>
				</g>
				<g>
					<path class="st3" d="M1033.3,1571.4c-1.8,0-3.7-0.3-5.5-0.9l-134.2-44.2c-4.4-1.5-8.1-4.6-10.1-8.7c-2.1-4.1-2.4-9-1-13.4
						l22.1-67.1c15.2-46.2,65.2-71.4,111.3-56.1c46.2,15.2,71.4,65.2,56.1,111.3l-22.1,67.1c-1.5,4.4-4.6,8.1-8.7,10.1
						C1038.7,1570.7,1036,1571.4,1033.3,1571.4z M921.1,1498.5l101,33.3l16.6-50.5c9.2-27.8-6-58-33.9-67.1
						c-27.8-9.2-58,6-67.1,33.9L921.1,1498.5z"/>
				</g>
				<g>
					<path class="st18" d="M775,2390.6L775,2390.6c-1.8,2.6-3.8,4.9-6.2,7.1l-125,111L610.1,2345c-0.8-3.5-1-7.1-0.8-10.7
						c0-0.2,0.1-0.3,0.1-0.3c0.1-1.6,0.3-3.2,0.7-4.8c0.3-1.6,0.7-3.1,1.2-4.6l263-795.4c20.6-62.6,189.6-7,168.9,55.7l-263.2,795.7
						c-0.4,1.4-0.9,2.6-1.5,3.9l-0.1,0.3C777.4,2386.7,776.3,2388.8,775,2390.6z"/>
				</g>
				<g>
					<path class="st16" d="M775,2390.6L775,2390.6c-1.8,2.6-3.8,4.9-6.2,7.1l-125,111L610.1,2345c-0.8-3.5-1-7.1-0.8-10.7
						c0-0.2,0.1-0.3,0.1-0.3C624.9,2288.7,790.3,2345.1,775,2390.6z"/>
				</g>
				<g class="st5">
					<path class="st3" d="M1043.1,1584.9l-263.2,795.7c-0.4,1.3-1,2.6-1.5,3.8l-0.1,0.3c-2.2,4.9-5.5,9.3-9.6,12.9l-125,111.1
						l6.9-28.9l82.2-122.4c4.1-3.7-3.8,0.8-1.6-4.1l0.1-0.3c0.6-1.2,1.1-2.5,1.5-3.8L996,1553.5c4.6-13.8-0.1-27.3-10.4-39.2
						C1022.8,1529.5,1052.5,1556.4,1043.1,1584.9z"/>
				</g>
				<g class="st17">
					<path class="st7" d="M952.6,1504.5c-12.7,4-22.3,11.8-26.3,23.9l-263.1,795.3c-2.2,6.6-2.6,13.7-1.2,20.4l0.6,140.9l-18.8,23.8
						L610.1,2345c-1.5-6.7-1-13.8,1.2-20.4l263.1-795.4C882.8,1503.2,917,1497.6,952.6,1504.5z"/>
				</g>
				<g>
					<path class="st3" d="M643.8,2526.3c-1.8,0-3.7-0.3-5.5-0.9c-5.9-2-10.4-7-11.6-13.1l-33.7-163.8c-2-9.6-1.5-19.8,1.7-29.4
						l263.1-795.4c6.3-19.2,22.7-32.5,46.1-37.3c44.8-9.3,110.7,12.4,141.2,46.5c15.9,17.8,21.2,38.2,14.8,57.4c0,0,0,0,0,0
						l-263.2,795.7c-3.1,9.4-8.7,17.9-16.1,24.6l-125.1,111.2C652.1,2524.7,648,2526.3,643.8,2526.3z M926.3,1519.2
						c-5.5,0-10.6,0.5-15.4,1.5c-16.5,3.4-19.1,11.4-20,14l-263.1,795.4c-1.2,3.7-1.5,7.6-0.7,11.2l27.6,134.2l102.4-91
						c2.9-2.6,4.9-5.8,6.2-9.5l263.2-795.7l0,0c0.9-2.6,3.5-10.6-7.7-23.2C1000,1535.2,958.2,1519.2,926.3,1519.2z M1043.1,1584.9
						L1043.1,1584.9L1043.1,1584.9z"/>
				</g>
				<g>
					<path class="st3" d="M1006,1710.8c-1.7,0-3.5-0.3-5.3-0.8c-8.8-2.9-13.6-12.4-10.7-21.2c0.9-2.7-2.5-9.2-12.1-16.9
						c-11.7-9.4-29.8-18.5-49.7-25.1c-44.1-14.5-72.5-9.6-74.6-2.9c-2.9,8.8-12.4,13.6-21.2,10.7c-8.8-2.9-13.6-12.4-10.7-21.2
						c3.4-10.4,14.5-28,50.3-29.5c19.1-0.7,42.8,3.1,66.7,11c23.9,7.9,45.3,18.8,60.2,30.8c28,22.5,26.4,43.2,23,53.6
						C1019.6,1706.3,1013,1710.8,1006,1710.8z"/>
				</g>
				<g>
					<path class="st3" d="M1034.8,1855l2.9,1l26.5-80.4l-2.9-1c-22.2-7.3-46.1,4.8-53.5,27h0
						C1000.5,1823.8,1012.6,1847.7,1034.8,1855z"/>
				</g>
				<g>
					<path class="st3" d="M774.9,2407.4c-1.8,0-3.6-0.3-5.4-0.9c-8.8-3-13.5-12.5-10.5-21.3c0.6-1.7-1.2-5.2-4.5-9
						c-21.2-24.3-88.6-47.3-120.2-41.1c-4.9,1-8.5,2.7-9.1,4.4c-3,8.8-12.5,13.4-21.3,10.5c-8.8-3-13.5-12.5-10.5-21.3
						c3.3-9.6,11.9-22,34.4-26.5c43.4-8.5,122.9,18.6,152,51.9c15.1,17.2,14.3,32.3,11,42C788.4,2403,781.9,2407.4,774.9,2407.4z"/>
				</g>
				<g>
					<path class="st3" d="M629.8,2572.5c-1.8,0-3.7-0.3-5.5-0.9c-9.2-3-14.2-12.9-11.1-22.1l17.5-52.9c3-9.2,12.9-14.2,22.1-11.1
						c9.2,3,14.2,12.9,11.1,22.1l-17.5,52.9C644,2567.8,637.1,2572.5,629.8,2572.5z"/>
				</g>
			</g>
		</g>
	</g>
</g>
</svg>
